<svg width="14.166748" height="18.333336" viewBox="0 0 14.1667 18.3333" fill="none" xmlns="http://www.w3.org/2000/svg" xmlns:xlink="http://www.w3.org/1999/xlink">
	<desc>
			Created with Pixso.
	</desc>
	<defs/>
	<path id="Line" d="M11.25 7.08C12.4 7.08 13.33 8.01 13.33 9.16L13.33 15.41C13.33 16.56 12.4 17.5 11.25 17.5L2.91 17.5C1.76 17.5 0.83 16.56 0.83 15.41L0.83 9.16C0.83 8.01 1.76 7.08 2.91 7.08L11.25 7.08Z" stroke="#5D5A88" stroke-opacity="1.000000" stroke-width="1.666667" stroke-linejoin="round"/>
	<path id="Line" d="M4.13 2.05C3.35 2.83 2.91 3.89 2.91 5L2.91 7.08L11.25 7.08L11.25 5C11.25 3.89 10.81 2.83 10.02 2.05C9.24 1.27 8.18 0.83 7.08 0.83C5.97 0.83 4.91 1.27 4.13 2.05Z" stroke="#5D5A88" stroke-opacity="1.000000" stroke-width="1.666667" stroke-linejoin="round"/>
</svg>
