<svg width="48.799988" height="36.599976" viewBox="0 0 48.8 36.6" fill="none" xmlns="http://www.w3.org/2000/svg" xmlns:xlink="http://www.w3.org/1999/xlink">
	<desc>
			Created with Pixso.
	</desc>
	<defs/>
	<path id="Vector" d="M0 7.62C0 5.6 0.8 3.66 2.23 2.23C3.66 0.8 5.6 0 7.62 0L41.17 0C43.19 0 45.13 0.8 46.56 2.23C47.99 3.66 48.8 5.6 48.8 7.62L48.8 28.97C48.8 30.99 47.99 32.93 46.56 34.36C45.13 35.79 43.19 36.59 41.17 36.59L7.62 36.59C5.6 36.59 3.66 35.79 2.23 34.36C0.8 32.93 0 30.99 0 28.97L0 7.62ZM22.87 6.09L7.62 6.09C7.22 6.09 6.83 6.26 6.54 6.54C6.26 6.83 6.09 7.22 6.09 7.62C6.09 8.02 6.26 8.41 6.54 8.7C6.83 8.98 7.22 9.15 7.62 9.15L22.87 9.15C23.27 9.15 23.66 8.98 23.95 8.7C24.23 8.41 24.4 8.02 24.4 7.62C24.4 7.22 24.23 6.83 23.95 6.54C23.66 6.26 23.27 6.09 22.87 6.09ZM32.02 12.2L7.62 12.2C7.22 12.2 6.83 12.36 6.54 12.64C6.26 12.93 6.09 13.32 6.09 13.72C6.09 14.12 6.26 14.51 6.54 14.8C6.83 15.08 7.22 15.25 7.62 15.25L32.02 15.25C32.42 15.25 32.81 15.08 33.1 14.8C33.38 14.51 33.55 14.12 33.55 13.72C33.55 13.32 33.38 12.93 33.1 12.64C32.81 12.36 32.42 12.2 32.02 12.2ZM9.15 21.35C8.34 21.35 7.56 21.67 6.99 22.24C6.42 22.81 6.09 23.59 6.09 24.4L6.09 27.45C6.09 28.25 6.42 29.03 6.99 29.6C7.56 30.17 8.34 30.5 9.15 30.5L21.35 30.5C22.15 30.5 22.93 30.17 23.5 29.6C24.07 29.03 24.4 28.25 24.4 27.45L24.4 24.4C24.4 23.59 24.07 22.81 23.5 22.24C22.93 21.67 22.15 21.35 21.35 21.35L9.15 21.35Z" fill="#D500F9" fill-opacity="1.000000" fill-rule="nonzero"/>
</svg>
