<svg width="42.512512" height="49.875000" viewBox="0 0 42.5125 49.875" fill="none" xmlns="http://www.w3.org/2000/svg" xmlns:xlink="http://www.w3.org/1999/xlink">
	<desc>
			Created with Pixso.
	</desc>
	<defs/>
	<path id="Vector" d="M14.13 4.75L14.13 0L28.38 0L28.38 4.75L14.13 4.75ZM16.5 32.65L13.89 27.43C13.69 26.99 13.39 26.66 13 26.45C12.6 26.23 12.19 26.12 11.75 26.12L0 26.12C0.59 20.78 2.9 16.27 6.94 12.61C10.98 8.95 15.75 7.12 21.25 7.12C23.71 7.12 26.06 7.52 28.32 8.31C30.57 9.1 32.69 10.25 34.67 11.75L38 8.43L41.32 11.75L38 15.08C39.26 16.74 40.27 18.49 41.02 20.33C41.78 22.17 42.27 24.1 42.51 26.12L32.24 26.12L28.14 17.93C27.7 17.02 26.99 16.56 26 16.56C25.01 16.56 24.3 17.02 23.86 17.93L16.5 32.65ZM21.25 49.87C15.75 49.87 10.98 48.04 6.94 44.38C2.9 40.72 0.59 36.22 0 30.87L10.27 30.87L14.36 39.06C14.8 39.97 15.51 40.43 16.5 40.43C17.49 40.43 18.2 39.97 18.64 39.06L26 24.34L28.61 29.56C28.81 30 29.11 30.33 29.5 30.54C29.9 30.76 30.32 30.87 30.75 30.87L42.51 30.87C41.91 36.21 39.6 40.72 35.56 44.38C31.52 48.04 26.75 49.87 21.25 49.87Z" fill="#D500F9" fill-opacity="1.000000" fill-rule="nonzero"/>
</svg>
