<svg width="53.153931" height="58.124939" viewBox="0 0 53.1539 58.1249" fill="none" xmlns="http://www.w3.org/2000/svg" xmlns:xlink="http://www.w3.org/1999/xlink">
	<desc>
			Created with Pixso.
	</desc>
	<defs/>
	<path id="Vector" d="M26.57 0C22.8 -0.14 19.88 2.47 16.72 4.11C12.42 6.66 7.99 9.01 3.77 11.69C1.01 13.93 -0.25 17.54 0.04 21.02C0.05 27.19 0 33.37 0.06 39.55C0.42 43.28 3.01 46.46 6.34 48.02C11.7 51.09 17.02 54.22 22.4 57.26C25.81 58.82 29.86 58.16 32.88 56.06C38.22 52.95 43.59 49.91 48.91 46.77C51.97 44.59 53.42 40.76 53.11 37.09C53.09 30.92 53.14 24.74 53.08 18.57C52.73 14.83 50.13 11.66 46.8 10.09C41.44 7.02 36.12 3.89 30.74 0.85C29.44 0.25 28 0 26.57 0L26.57 0ZM23.21 15.55L29.94 15.55L29.94 42.56L23.21 42.56L23.21 15.55ZM31.67 21.43L38.4 21.43L38.4 42.56L31.67 42.56L31.67 21.43ZM14.75 32.45L21.47 32.45L21.47 42.56L14.75 42.56L14.75 32.45Z" fill="#D500F9" fill-opacity="1.000000" fill-rule="nonzero"/>
</svg>
